<svg width="244" height="59" viewBox="0 0 244 59" fill="none" xmlns="http://www.w3.org/2000/svg">
<path d="M28.712 55.088C27.0693 55.088 25.9253 54.2373 25.28 52.536C24.6347 50.8347 24.1067 48.5467 23.696 45.672L23.432 43.472C22.552 38.7787 21.848 34.1147 21.32 29.48C20.792 24.7867 20.264 19.1253 19.736 12.496L19.208 5.984C15.688 6.04266 10.672 5.896 4.16 5.544L2.4 5.456C1.57867 5.39733 0.992 5.016 0.64 4.312C0.346667 3.54933 0.2 2.52266 0.2 1.232H6.272C16.48 1.232 25.6907 1.61333 33.904 2.376C42.1173 3.13866 46.224 4.69333 46.224 7.04C46.224 7.68533 46.1067 8.12533 45.872 8.36C45.696 8.59466 45.2853 8.712 44.64 8.712C42.2933 8.536 38.656 8.03733 33.728 7.216C32.6133 7.04 31.264 6.83467 29.68 6.6C28.096 6.36533 26.3067 6.13066 24.312 5.896C24.312 14.4027 25.5733 27.4853 28.096 45.144C28.2133 46.024 28.624 47.2853 29.328 48.928C29.6213 49.632 29.8853 50.3947 30.12 51.216C30.4133 51.9787 30.56 52.6827 30.56 53.328C30.56 54.1493 30.4427 54.648 30.208 54.824C29.9733 55 29.68 55.088 29.328 55.088C29.0347 55.088 28.8293 55.088 28.712 55.088ZM78.1893 55.088C73.32 55.088 68.9493 54.0907 65.0773 52.096C61.264 50.1013 58.272 47.2853 56.1013 43.648C53.9306 40.0107 52.8453 35.816 52.8453 31.064C52.8453 27.8373 53.4906 24.8747 54.7813 22.176C56.072 19.4773 57.9493 17.336 60.4133 15.752C62.8773 14.1093 65.7813 13.288 69.1253 13.288C75.4613 13.288 81.0933 14.3733 86.0213 16.544C91.008 18.656 94.88 21.7067 97.6373 25.696C100.453 29.6853 101.861 34.2907 101.861 39.512C101.861 42.9733 100.571 45.8773 97.9893 48.224C95.4666 50.5707 92.3573 52.3013 88.6613 53.416C85.024 54.5307 81.5333 55.088 78.1893 55.088ZM76.5173 50.512C82.384 50.512 87.312 49.632 91.3013 47.872C95.3493 46.112 97.3733 43.1787 97.3733 39.072C97.3733 31.9147 94.616 26.5467 89.1013 22.968C83.5866 19.3307 76.5466 17.512 67.9813 17.512C63.8746 17.512 60.9706 18.744 59.2693 21.208C57.6266 23.6133 56.8053 26.8987 56.8053 31.064C56.8053 34.5253 57.6266 37.752 59.2693 40.744C60.9706 43.6773 63.3173 46.0533 66.3093 47.872C69.3013 49.632 72.704 50.512 76.5173 50.512ZM148.911 57.992C148.5 58.4613 147.914 58.696 147.151 58.696C144.394 58.696 139.994 56.1733 133.951 51.128C127.967 46.024 122.658 40.9493 118.023 35.904C118.316 37.488 118.874 40.1573 119.695 43.912C120.047 45.3787 120.34 46.7867 120.575 48.136C120.868 49.4853 121.015 50.5413 121.015 51.304C121.015 53.0053 120.399 54.032 119.167 54.384C118.874 55.1467 118.082 53.24 116.791 48.664C115.559 44.088 114.386 38.808 113.271 32.824C112.215 26.7813 111.687 21.736 111.687 17.688C111.687 15.6347 111.863 13.9627 112.215 12.672C112.978 12.0853 113.623 11.792 114.151 11.792C115.207 11.792 115.94 12.7013 116.351 14.52C116.762 16.28 117.143 19.0667 117.495 22.88L117.671 24.904C119.959 24.7867 123.068 24.288 126.999 23.408C130.988 22.528 134.538 21.3253 137.647 19.8C140.815 18.216 142.399 16.3387 142.399 14.168C142.399 12.9947 141.548 11.704 139.847 10.296C138.204 8.82933 135.652 7.59733 132.191 6.6C128.788 5.60266 124.594 5.104 119.607 5.104H116.791C113.447 5.104 110.836 5.66133 108.959 6.776C107.082 7.832 106.143 10.12 106.143 13.64C105.263 13.64 104.471 13.0827 103.767 11.968C103.063 10.8533 102.711 9.82666 102.711 8.888C102.711 5.25066 104.442 2.87466 107.903 1.76C111.423 0.645332 116.468 0.0879989 123.039 0.0879989C126.5 0.0879989 130.108 0.645332 133.863 1.76C137.618 2.87466 140.786 4.63466 143.367 7.04C145.948 9.38667 147.239 12.32 147.239 15.84C147.239 18.2453 146.154 20.24 143.983 21.824C141.871 23.408 139.378 24.64 136.503 25.52C133.628 26.4 130.108 27.3093 125.943 28.248C122.482 29.0107 120.223 29.568 119.167 29.92C123.684 36.0213 128.026 40.7733 132.191 44.176C136.415 47.5787 140.815 50.6587 145.391 53.416C146.975 54.3547 148.09 55.0587 148.735 55.528C149.38 55.9973 149.703 56.4373 149.703 56.848C149.703 57.2587 149.439 57.64 148.911 57.992ZM184.44 4.4C184.44 4.10666 184.792 3.84266 185.496 3.608C186.2 3.31466 186.874 3.168 187.52 3.168C187.989 3.168 188.341 3.28533 188.576 3.52C188.81 3.696 188.81 3.98933 188.576 4.4C188.106 5.33866 187.05 7.33333 185.408 10.384C182.944 14.96 180.978 18.9493 179.512 22.352C178.045 25.7547 176.784 29.8907 175.728 34.76C174.672 39.6293 174.144 45.2027 174.144 51.48L174.232 56.496C174.232 57.0827 173.968 57.5227 173.44 57.816C172.97 58.1093 172.354 58.256 171.592 58.256C171.005 58.256 170.624 58.168 170.448 57.992C170.33 57.816 170.272 57.552 170.272 57.2C170.272 56.848 170.272 56.584 170.272 56.408C170.096 54.12 170.008 51.9493 170.008 49.896C170.008 45.2613 170.418 40.832 171.24 36.608C167.72 32.2667 164.845 28.5707 162.616 25.52C160.445 22.4107 158.392 18.9787 156.456 15.224C154.52 11.4693 152.701 7.128 151 2.2C151.117 2.25866 151.704 2.22933 152.76 2.112C153.816 1.99466 154.402 1.936 154.52 1.936L157.336 7.304C160.68 13.64 163.349 18.48 165.344 21.824C167.338 25.1093 169.685 28.3067 172.384 31.416C173.616 26.7227 175.112 22.4987 176.872 18.744C178.69 14.9307 180.832 10.824 183.296 6.424L184.44 4.4ZM222.278 51.656C227.089 51.656 230.814 50.9813 233.454 49.632C236.094 48.2827 237.414 46.3173 237.414 43.736C237.414 41.448 236.622 39.4827 235.038 37.84C233.454 36.1387 231.489 34.7013 229.142 33.528C226.796 32.3547 223.598 30.976 219.55 29.392C219.198 29.2747 218.348 28.952 216.998 28.424C211.484 26.1947 207.23 23.9653 204.238 21.736C201.305 19.5067 199.838 16.632 199.838 13.112C199.838 9.18133 201.393 6.21866 204.502 4.224C207.612 2.22933 211.601 1.232 216.47 1.232C220.049 1.232 223.334 1.70133 226.326 2.64C229.377 3.52 231.782 4.752 233.542 6.336C235.361 7.92 236.27 9.70933 236.27 11.704C235.566 12.056 234.892 12.232 234.246 12.232C233.542 12.232 232.809 12.0853 232.046 11.792C231.342 11.44 230.286 10.8827 228.878 10.12C226.59 8.888 224.449 7.92 222.454 7.216C220.46 6.45333 218.113 6.072 215.414 6.072C212.012 6.072 209.254 6.65866 207.142 7.832C205.03 9.00533 203.974 10.648 203.974 12.76C203.974 14.4027 204.678 15.8987 206.086 17.248C207.553 18.5973 209.372 19.8 211.542 20.856C213.772 21.8533 216.734 23.056 220.43 24.464C225.124 26.2827 228.996 27.984 232.046 29.568C235.097 31.152 237.678 33.176 239.79 35.64C241.961 38.0453 243.046 40.92 243.046 44.264C243.046 48.1947 241.169 51.2453 237.414 53.416C233.66 55.528 228.996 56.584 223.422 56.584C219.022 56.584 214.681 55.9387 210.398 54.648C206.116 53.3573 202.449 51.4507 199.398 48.928C196.348 46.3467 194.412 43.2667 193.59 39.688C193.59 38.104 194.03 36.7547 194.91 35.64C195.79 34.4667 196.876 33.88 198.166 33.88C198.166 37.6933 199.222 40.9493 201.334 43.648C203.505 46.288 206.409 48.2827 210.046 49.632C213.742 50.9813 217.82 51.656 222.278 51.656Z" fill="white"/>
</svg>
