<svg width="20" height="20" viewBox="0 0 20 20" fill="none" xmlns="http://www.w3.org/2000/svg">
<path d="M7.50001 9.79169C6.92501 9.79169 6.45834 10.2584 6.45834 10.8334C6.45834 11.4084 6.92501 11.875 7.50001 11.875C8.07501 11.875 8.54167 11.4084 8.54167 10.8334C8.54167 10.2584 8.07501 9.79169 7.50001 9.79169ZM12.5 9.79169C11.925 9.79169 11.4583 10.2584 11.4583 10.8334C11.4583 11.4084 11.925 11.875 12.5 11.875C13.075 11.875 13.5417 11.4084 13.5417 10.8334C13.5417 10.2584 13.075 9.79169 12.5 9.79169ZM10 1.66669C5.40001 1.66669 1.66667 5.40002 1.66667 10C1.66667 14.6 5.40001 18.3334 10 18.3334C14.6 18.3334 18.3333 14.6 18.3333 10C18.3333 5.40002 14.6 1.66669 10 1.66669ZM10 16.6667C6.32501 16.6667 3.33334 13.675 3.33334 10C3.33334 9.75835 3.35001 9.51669 3.37501 9.28335C5.34167 8.40835 6.90001 6.80002 7.71667 4.80835C9.22501 6.94169 11.7083 8.33335 14.5167 8.33335C15.1667 8.33335 15.7917 8.25835 16.3917 8.11669C16.5667 8.70835 16.6667 9.34169 16.6667 10C16.6667 13.675 13.675 16.6667 10 16.6667Z" fill="#CFCFCF"/>
</svg>
