<svg width="18" height="19" viewBox="0 0 18 19" fill="none" xmlns="http://www.w3.org/2000/svg">
<path d="M8.97428 4.33102L10.3461 2.75936L10.3468 2.75846C10.7134 2.34051 11.1522 2.00467 11.6401 1.77357L11.647 1.77028L11.647 1.77034C12.6369 1.31995 13.7454 1.31995 14.7353 1.77034L14.7421 1.77341L14.7487 1.77669C15.2338 2.01504 15.672 2.35253 16.0423 2.7663C16.2993 3.04425 16.5145 3.3661 16.6769 3.72158C17.0059 4.3848 17.1765 5.12971 17.1753 5.88435C17.1935 6.27396 17.1643 6.66478 17.0885 7.04597L17.0084 7.44841H16.9403C16.7503 8.04211 16.4482 8.58785 16.0496 9.04589L16.0476 9.04821L9.34947 16.6517L8.97428 17.0776L8.5991 16.6517L1.90095 9.0482L1.89947 9.04653C1.65417 8.76554 1.44181 8.45227 1.26659 8.11442L1.26195 8.10547L1.26204 8.10542C1.09784 7.77254 0.969145 7.41984 0.878164 7.05466L0.875274 7.04306L0.872941 7.03133C0.800881 6.66908 0.763222 6.2994 0.760496 5.92853L0.760451 5.92236H0.760489C0.762388 5.54194 0.799941 5.16263 0.872617 4.79078L0.874709 4.78007L0.877266 4.76947C0.966128 4.40096 1.09577 4.04557 1.26367 3.71177L8.97428 4.33102ZM8.97428 4.33102L7.60252 2.75936L7.60132 2.758C7.23537 2.34178 6.79813 2.00476 6.30795 1.77331L6.30797 1.77326L6.30154 1.77034C5.31167 1.31995 4.20314 1.31995 3.21328 1.77034L3.20654 1.7734L3.19991 1.77666C2.71334 2.01566 2.27408 2.35355 1.90285 2.77012L1.90256 2.77045C1.65295 3.05104 1.43795 3.36494 1.26379 3.71153L8.97428 4.33102ZM17.3573 4.67458L17.3577 4.67636C17.4578 5.11463 17.5056 5.56681 17.4995 6.02045L17.4994 6.02045L17.4994 6.02999C17.5042 6.89211 17.3045 7.73671 16.9249 8.47428L16.9248 8.47421L16.9196 8.48484C16.7336 8.86821 16.4984 9.21969 16.2254 9.52491L16.2226 9.52807L9 17.7427L1.7774 9.52807L1.77614 9.52664C1.50116 9.21629 1.26188 8.86464 1.06528 8.4802C0.883197 8.10447 0.740851 7.70424 0.641753 7.28804C0.547759 6.87709 0.500562 6.45319 0.500562 6.02721H0.500607L0.500517 6.0205C0.494426 5.56683 0.54219 5.11462 0.642288 4.67631L0.642312 4.67632L0.643365 4.67149C0.830784 3.81176 1.22449 3.03596 1.77288 2.42906L1.77291 2.42909L1.77685 2.42462C2.18007 1.96755 2.65407 1.60773 3.17064 1.36175C4.205 0.879501 5.36009 0.879335 6.39453 1.36125C6.87697 1.59392 7.32424 1.92002 7.71592 2.32782L7.76101 2.38936L7.77415 2.40729L7.78884 2.42399L8.6245 3.37444L9 3.80151L9.3755 3.37444L10.2112 2.42399L10.2258 2.4073L10.239 2.38936L10.2841 2.32782C10.6758 1.92002 11.123 1.59392 11.6055 1.36125C12.6399 0.879334 13.795 0.8795 14.8294 1.36175C15.3459 1.60774 15.8199 1.96755 16.2231 2.42462L16.2231 2.42466L16.2285 2.4306C16.5019 2.7306 16.7348 3.07878 16.9179 3.46375L16.9213 3.47091L16.925 3.47796C17.1169 3.85054 17.2627 4.2533 17.3573 4.67458Z" stroke="#BFBFBF"/>
</svg>
