<svg width="18" height="20" viewBox="0 0 18 20" fill="none" xmlns="http://www.w3.org/2000/svg">
<path d="M17.7997 12.6157L15.9487 10.7488V8.27574C15.9466 6.56669 15.3163 4.91913 14.1796 3.65166C13.0429 2.38418 11.4806 1.58683 9.79488 1.41377V0H8.42736V1.41377C6.7416 1.58683 5.17933 2.38418 4.04265 3.65166C2.90597 4.91913 2.27563 6.56669 2.27351 8.27574V10.7488L0.422571 12.6157C0.294332 12.745 0.222268 12.9204 0.222229 13.1033V15.1722C0.222229 15.3551 0.294268 15.5305 0.422498 15.6598C0.550728 15.7892 0.724645 15.8618 0.90599 15.8618H5.69231V16.3977C5.67744 17.2726 5.98319 18.1223 6.55097 18.7839C7.11875 19.4455 7.90863 19.8725 8.76924 19.9831C9.24457 20.0307 9.72451 19.9774 10.1782 19.8266C10.6319 19.6758 11.0492 19.431 11.4034 19.1077C11.7577 18.7845 12.0409 18.3901 12.2349 17.9498C12.4289 17.5096 12.5294 17.0333 12.5299 16.5515V15.8618H17.3162C17.4976 15.8618 17.6715 15.7892 17.7997 15.6598C17.928 15.5305 18 15.3551 18 15.1722V13.1033C18 12.9204 17.9279 12.745 17.7997 12.6157ZM11.1624 16.5515C11.1624 17.1002 10.9463 17.6264 10.5616 18.0144C10.1769 18.4024 9.65515 18.6204 9.11112 18.6204C8.56708 18.6204 8.04533 18.4024 7.66064 18.0144C7.27595 17.6264 7.05984 17.1002 7.05984 16.5515V15.8618H11.1624V16.5515ZM16.6325 14.4825H1.58975V13.3888L3.44069 11.5219C3.56893 11.3926 3.64099 11.2172 3.64103 11.0343V8.27574C3.64103 6.8125 4.21734 5.40919 5.24318 4.37452C6.26902 3.33985 7.66036 2.75858 9.11112 2.75858C10.5619 2.75858 11.9532 3.33985 12.9791 4.37452C14.0049 5.40919 14.5812 6.8125 14.5812 8.27574V11.0343C14.5812 11.2172 14.6533 11.3926 14.7815 11.5219L16.6325 13.3888V14.4825Z" fill="#A572CD"/>
</svg>
