<svg width="19" height="19" viewBox="0 0 19 19" fill="none" xmlns="http://www.w3.org/2000/svg">
<path fill-rule="evenodd" clip-rule="evenodd" d="M9.00122 18.5025C13.9725 18.5025 18.0024 14.4725 18.0024 9.50125C18.0024 4.53001 13.9725 0.500031 9.00122 0.500031C4.02998 0.500031 0 4.53001 0 9.50125C0 14.4725 4.02998 18.5025 9.00122 18.5025ZM9.00122 17.5025C13.4202 17.5025 17.0024 13.9202 17.0024 9.50125C17.0024 5.0823 13.4202 1.50003 9.00122 1.50003C4.58227 1.50003 1 5.0823 1 9.50125C1 13.9202 4.58227 17.5025 9.00122 17.5025ZM11.8977 8.40261C12.4493 8.40261 12.8965 7.95544 12.8965 7.40383C12.8965 6.85222 12.4493 6.40505 11.8977 6.40505C11.3461 6.40505 10.8989 6.85222 10.8989 7.40383C10.8989 7.95544 11.3461 8.40261 11.8977 8.40261ZM6.9038 7.40383C6.9038 7.95544 6.45663 8.40261 5.90502 8.40261C5.35341 8.40261 4.90624 7.95544 4.90624 7.40383C4.90624 6.85222 5.35341 6.40505 5.90502 6.40505C6.45663 6.40505 6.9038 6.85222 6.9038 7.40383ZM6.2062 10.9998C5.98578 10.8335 5.67225 10.8774 5.50591 11.0978C5.33957 11.3182 5.38342 11.6317 5.60384 11.7981C6.693 12.62 9.54886 13.7978 12.1989 11.7981C12.4193 11.6317 12.4632 11.3182 12.2968 11.0978C12.1305 10.8774 11.8169 10.8335 11.5965 10.9998C9.4524 12.6178 7.1146 11.6853 6.2062 10.9998Z" fill="#BFBFBF"/>
</svg>
