<svg width="18" height="18" viewBox="0 0 18 18" fill="none" xmlns="http://www.w3.org/2000/svg">
<path fill-rule="evenodd" clip-rule="evenodd" d="M13.8558 13.5348C15.1842 12.1516 16.0009 10.2769 16.0009 8.21013C16.0009 3.94632 12.5252 0.500031 8.25043 0.500031C3.97564 0.500031 0.5 3.94632 0.5 8.21013C0.5 12.4739 3.97564 15.9202 8.25043 15.9202C10.0929 15.9202 11.787 15.28 13.1183 14.21C13.1327 14.2272 13.1485 14.2435 13.1657 14.259L17.1659 17.8721C17.3708 18.0572 17.687 18.0411 17.8721 17.8362C18.0572 17.6313 18.0411 17.3151 17.8362 17.13L13.8558 13.5348ZM8.25043 14.9202C11.9786 14.9202 15.0009 11.916 15.0009 8.21013C15.0009 4.50425 11.9786 1.50003 8.25043 1.50003C4.52227 1.50003 1.5 4.50425 1.5 8.21013C1.5 11.916 4.52227 14.9202 8.25043 14.9202Z" fill="#BFBFBF"/>
</svg>
